# xmcd
# 
# Track frame offsets:
#     150
#     28720
#     56827
#     85450
#     111057
#     141075
#     165792
#     194477
#     220642
#     253430
#     266310
# 
# Disc length: 3937
# 
# Revision: 5
# Processed by: cddbd v1.5.2PL0 Copyright (c) Steve Scherf et al.
# Submitted via: BonkEnc v1.0.8
# 
DISCID=9a0f5f0b
DTITLE=Don Friedman - Memories For Scott
DYEAR=1961
DGENRE=Jazz
TTITLE0=Hear A Rapsody
TTITLE1=Sacre Blue take 1
TTITLE2=Sacre Blue take 2
TTITLE3=Wouldn't you
TTITLE4=Green Dolphin Street
TTITLE5=The Bears Of Bern take 1
TTITLE6=Dawn
TTITLE7=The Bears Of Bern take 2
TTITLE8=How Deep Is The Ocean
TTITLE9=Rush Hour
TTITLE10=Memories For Scott
EXTD=YEAR: 1961
EXTT0=
EXTT1=
EXTT2=
EXTT3=
EXTT4=
EXTT5=
EXTT6=
EXTT7=
EXTT8=
EXTT9=
EXTT10=
PLAYORDER=
